<svg xmlns="http://www.w3.org/2000/svg" viewBox="0 0 1200 630">
<rect width="1200" height="630" fill="#F5EFE3"/>
<path d="M1114.3 57.6 L1161.8 85.0 L1161.8 139.8 L1114.3 167.2 L1066.9 139.8 L1066.9 85.0 Z" fill="none" stroke="#534AB7" stroke-width="1.5" opacity="0.12"/><path d="M974.7 -62.2 L1009.8 -41.9 L1009.8 -1.4 L974.7 18.9 L939.6 -1.4 L939.6 -41.9 Z" fill="none" stroke="#534AB7" stroke-width="1.5" opacity="0.14"/><path d="M1106.6 -54.2 L1175.8 -14.3 L1175.8 65.5 L1106.6 105.4 L1037.5 65.5 L1037.5 -14.3 Z" fill="none" stroke="#534AB7" stroke-width="1.5" opacity="0.11"/><path d="M898.9 27.8 L955.7 60.6 L955.7 126.2 L898.9 158.9 L842.1 126.2 L842.1 60.6 Z" fill="none" stroke="#534AB7" stroke-width="1.5" opacity="0.08"/><path d="M971.5 142.1 L1024.2 172.6 L1024.2 233.5 L971.5 264.0 L918.7 233.5 L918.7 172.6 Z" fill="none" stroke="#534AB7" stroke-width="1.5" opacity="0.13"/><path d="M958.3 -92.4 L1019.2 -57.2 L1019.2 13.1 L958.3 48.3 L897.4 13.1 L897.4 -57.2 Z" fill="none" stroke="#534AB7" stroke-width="1.5" opacity="0.12"/><path d="M1091.5 -105.9 L1156.2 -68.6 L1156.2 6.0 L1091.5 43.3 L1026.9 6.0 L1026.9 -68.6 Z" fill="none" stroke="#534AB7" stroke-width="1.5" opacity="0.11"/><path d="M941.2 137.5 L1000.6 171.8 L1000.6 240.4 L941.2 274.6 L881.8 240.4 L881.8 171.8 Z" fill="none" stroke="#534AB7" stroke-width="1.5" opacity="0.15"/><path d="M1057.8 126.5 L1107.9 155.4 L1107.9 213.1 L1057.8 242.0 L1007.8 213.1 L1007.8 155.4 Z" fill="none" stroke="#534AB7" stroke-width="1.5" opacity="0.15"/><path d="M883.6 -58.2 L923.0 -35.4 L923.0 10.0 L883.6 32.7 L844.3 10.0 L844.3 -35.4 Z" fill="none" stroke="#534AB7" stroke-width="1.5" opacity="0.08"/><path d="M852.4 17.1 L908.8 49.6 L908.8 114.7 L852.4 147.2 L796.1 114.7 L796.1 49.6 Z" fill="none" stroke="#534AB7" stroke-width="1.5" opacity="0.09"/><path d="M1017.4 14.0 L1064.2 41.0 L1064.2 95.1 L1017.4 122.1 L970.6 95.1 L970.6 41.0 Z" fill="none" stroke="#534AB7" stroke-width="1.5" opacity="0.12"/><path d="M989.7 145.9 L1047.9 179.5 L1047.9 246.8 L989.7 280.5 L931.4 246.8 L931.4 179.5 Z" fill="none" stroke="#534AB7" stroke-width="1.5" opacity="0.15"/><path d="M891.7 170.6 L949.6 204.1 L949.6 270.9 L891.7 304.3 L833.8 270.9 L833.8 204.1 Z" fill="none" stroke="#534AB7" stroke-width="1.5" opacity="0.08"/>
<g transform="translate(92 175) scale(0.55)"><g><path d="M256.0 36.0 L446.5 146.0 L446.5 366.0 L256.0 476.0 L65.5 366.0 L65.5 146.0 Z M230 296 a26 26 0 1 0 52 0 a26 26 0 1 0 -52 0 Z M247 339 A9 9 0 0 1 265 339 V459 A9 9 0 0 1 247 459 Z" fill="#3C3489" fill-rule="evenodd"/><path d="M446.5 366.0 L256.0 476.0 L65.5 366.0 Z M247 366 H265 V459 A9 9 0 0 1 247 459 Z" fill="#EF9F27" fill-rule="evenodd"/></g></g>
<text x="420" y="345" font-family="DejaVu Serif, serif" font-size="118" font-weight="bold">
<tspan fill="#534AB7">Hex</tspan><tspan fill="#232046">writer</tspan></text>
<text x="427" y="412" font-family="DejaVu Sans, sans-serif" font-size="29" letter-spacing="8" fill="#7A7466">THE LONG-FORM BOOK EDITOR</text>
</svg>