<svg xmlns="http://www.w3.org/2000/svg" viewBox="0 0 1920 600"><rect width="1920" height="600" fill="#232046"/><path d="M0.0 -168.6 L71.5 -127.3 L71.5 -44.7 L0.0 -3.4 L-71.5 -44.7 L-71.5 -127.3 Z" fill="none" stroke="#534AB7" stroke-width="1.5" opacity="0.22"/><path d="M149.0 -168.6 L220.4 -127.3 L220.4 -44.7 L149.0 -3.4 L77.5 -44.7 L77.5 -127.3 Z" fill="none" stroke="#534AB7" stroke-width="1.5" opacity="0.21"/><path d="M297.9 -168.6 L369.4 -127.3 L369.4 -44.7 L297.9 -3.4 L226.4 -44.7 L226.4 -127.3 Z" fill="none" stroke="#534AB7" stroke-width="1.5" opacity="0.19"/><path d="M446.9 -168.6 L518.4 -127.3 L518.4 -44.7 L446.9 -3.4 L375.4 -44.7 L375.4 -127.3 Z" fill="none" stroke="#534AB7" stroke-width="1.5" opacity="0.18"/><path d="M595.8 -168.6 L667.3 -127.3 L667.3 -44.7 L595.8 -3.4 L524.3 -44.7 L524.3 -127.3 Z" fill="none" stroke="#534AB7" stroke-width="1.5" opacity="0.17"/><path d="M744.8 -168.6 L816.3 -127.3 L816.3 -44.7 L744.8 -3.4 L673.3 -44.7 L673.3 -127.3 Z" fill="none" stroke="#534AB7" stroke-width="1.5" opacity="0.16"/><path d="M893.7 -168.6 L965.2 -127.3 L965.2 -44.7 L893.7 -3.4 L822.2 -44.7 L822.2 -127.3 Z" fill="none" stroke="#534AB7" stroke-width="1.5" opacity="0.14"/><path d="M1042.7 -168.6 L1114.2 -127.3 L1114.2 -44.7 L1042.7 -3.4 L971.2 -44.7 L971.2 -127.3 Z" fill="none" stroke="#534AB7" stroke-width="1.5" opacity="0.13"/><path d="M1191.6 -168.6 L1263.1 -127.3 L1263.1 -44.7 L1191.6 -3.4 L1120.1 -44.7 L1120.1 -127.3 Z" fill="none" stroke="#534AB7" stroke-width="1.5" opacity="0.12"/><path d="M1340.6 -168.6 L1412.1 -127.3 L1412.1 -44.7 L1340.6 -3.4 L1269.1 -44.7 L1269.1 -127.3 Z" fill="none" stroke="#534AB7" stroke-width="1.5" opacity="0.10"/><path d="M1489.5 -168.6 L1561.0 -127.3 L1561.0 -44.7 L1489.5 -3.4 L1418.0 -44.7 L1418.0 -127.3 Z" fill="none" stroke="#534AB7" stroke-width="1.5" opacity="0.09"/><path d="M1638.5 -168.6 L1710.0 -127.3 L1710.0 -44.7 L1638.5 -3.4 L1567.0 -44.7 L1567.0 -127.3 Z" fill="none" stroke="#534AB7" stroke-width="1.5" opacity="0.08"/><path d="M1787.4 -168.6 L1858.9 -127.3 L1858.9 -44.7 L1787.4 -3.4 L1715.9 -44.7 L1715.9 -127.3 Z" fill="none" stroke="#534AB7" stroke-width="1.5" opacity="0.07"/><path d="M1936.4 -168.6 L2007.9 -127.3 L2007.9 -44.7 L1936.4 -3.4 L1864.9 -44.7 L1864.9 -127.3 Z" fill="none" stroke="#534AB7" stroke-width="1.5" opacity="0.05"/><path d="M-74.5 -39.6 L-3.0 1.7 L-3.0 84.3 L-74.5 125.6 L-146.0 84.3 L-146.0 1.7 Z" fill="none" stroke="#534AB7" stroke-width="1.5" opacity="0.23"/><path d="M74.5 -39.6 L146.0 1.7 L146.0 84.3 L74.5 125.6 L3.0 84.3 L3.0 1.7 Z" fill="none" stroke="#534AB7" stroke-width="1.5" opacity="0.21"/><path d="M223.4 -39.6 L294.9 1.7 L294.9 84.3 L223.4 125.6 L151.9 84.3 L151.9 1.7 Z" fill="none" stroke="#534AB7" stroke-width="1.5" opacity="0.20"/><path d="M372.4 -39.6 L443.9 1.7 L443.9 84.3 L372.4 125.6 L300.9 84.3 L300.9 1.7 Z" fill="none" stroke="#534AB7" stroke-width="1.5" opacity="0.19"/><path d="M521.3 -39.6 L592.8 1.7 L592.8 84.3 L521.3 125.6 L449.8 84.3 L449.8 1.7 Z" fill="none" stroke="#534AB7" stroke-width="1.5" opacity="0.18"/><path d="M670.3 -39.6 L741.8 1.7 L741.8 84.3 L670.3 125.6 L598.8 84.3 L598.8 1.7 Z" fill="none" stroke="#534AB7" stroke-width="1.5" opacity="0.16"/><path d="M819.2 -39.6 L890.7 1.7 L890.7 84.3 L819.2 125.6 L747.7 84.3 L747.7 1.7 Z" fill="none" stroke="#534AB7" stroke-width="1.5" opacity="0.15"/><path d="M968.2 -39.6 L1039.7 1.7 L1039.7 84.3 L968.2 125.6 L896.7 84.3 L896.7 1.7 Z" fill="none" stroke="#534AB7" stroke-width="1.5" opacity="0.14"/><path d="M1117.1 -39.6 L1188.6 1.7 L1188.6 84.3 L1117.1 125.6 L1045.6 84.3 L1045.6 1.7 Z" fill="none" stroke="#534AB7" stroke-width="1.5" opacity="0.12"/><path d="M1266.1 -39.6 L1337.6 1.7 L1337.6 84.3 L1266.1 125.6 L1194.6 84.3 L1194.6 1.7 Z" fill="#3C3489" opacity="0.10"/><path d="M1415.0 -39.6 L1486.5 1.7 L1486.5 84.3 L1415.0 125.6 L1343.5 84.3 L1343.5 1.7 Z" fill="#3C3489" opacity="0.09"/><path d="M1564.0 -39.6 L1635.5 1.7 L1635.5 84.3 L1564.0 125.6 L1492.5 84.3 L1492.5 1.7 Z" fill="none" stroke="#534AB7" stroke-width="1.5" opacity="0.09"/><path d="M1712.9 -39.6 L1784.4 1.7 L1784.4 84.3 L1712.9 125.6 L1641.5 84.3 L1641.5 1.7 Z" fill="none" stroke="#534AB7" stroke-width="1.5" opacity="0.07"/><path d="M1861.9 -39.6 L1933.4 1.7 L1933.4 84.3 L1861.9 125.6 L1790.4 84.3 L1790.4 1.7 Z" fill="none" stroke="#534AB7" stroke-width="1.5" opacity="0.06"/><path d="M2010.9 -39.6 L2082.3 1.7 L2082.3 84.3 L2010.9 125.6 L1939.4 84.3 L1939.4 1.7 Z" fill="none" stroke="#534AB7" stroke-width="1.5" opacity="0.05"/><path d="M0.0 89.4 L71.5 130.7 L71.5 213.3 L0.0 254.6 L-71.5 213.3 L-71.5 130.7 Z" fill="none" stroke="#534AB7" stroke-width="1.5" opacity="0.22"/><path d="M149.0 89.4 L220.4 130.7 L220.4 213.3 L149.0 254.6 L77.5 213.3 L77.5 130.7 Z" fill="none" stroke="#534AB7" stroke-width="1.5" opacity="0.21"/><path d="M297.9 89.4 L369.4 130.7 L369.4 213.3 L297.9 254.6 L226.4 213.3 L226.4 130.7 Z" fill="none" stroke="#534AB7" stroke-width="1.5" opacity="0.19"/><path d="M446.9 89.4 L518.4 130.7 L518.4 213.3 L446.9 254.6 L375.4 213.3 L375.4 130.7 Z" fill="none" stroke="#534AB7" stroke-width="1.5" opacity="0.18"/><path d="M595.8 89.4 L667.3 130.7 L667.3 213.3 L595.8 254.6 L524.3 213.3 L524.3 130.7 Z" fill="none" stroke="#534AB7" stroke-width="1.5" opacity="0.17"/><path d="M744.8 89.4 L816.3 130.7 L816.3 213.3 L744.8 254.6 L673.3 213.3 L673.3 130.7 Z" fill="none" stroke="#534AB7" stroke-width="1.5" opacity="0.16"/><path d="M893.7 89.4 L965.2 130.7 L965.2 213.3 L893.7 254.6 L822.2 213.3 L822.2 130.7 Z" fill="none" stroke="#534AB7" stroke-width="1.5" opacity="0.14"/><path d="M1042.7 89.4 L1114.2 130.7 L1114.2 213.3 L1042.7 254.6 L971.2 213.3 L971.2 130.7 Z" fill="none" stroke="#534AB7" stroke-width="1.5" opacity="0.13"/><path d="M1191.6 89.4 L1263.1 130.7 L1263.1 213.3 L1191.6 254.6 L1120.1 213.3 L1120.1 130.7 Z" fill="none" stroke="#534AB7" stroke-width="1.5" opacity="0.12"/><path d="M1340.6 89.4 L1412.1 130.7 L1412.1 213.3 L1340.6 254.6 L1269.1 213.3 L1269.1 130.7 Z" fill="none" stroke="#534AB7" stroke-width="1.5" opacity="0.10"/><path d="M1489.5 89.4 L1561.0 130.7 L1561.0 213.3 L1489.5 254.6 L1418.0 213.3 L1418.0 130.7 Z" fill="none" stroke="#534AB7" stroke-width="1.5" opacity="0.09"/><path d="M1638.5 89.4 L1710.0 130.7 L1710.0 213.3 L1638.5 254.6 L1567.0 213.3 L1567.0 130.7 Z" fill="none" stroke="#534AB7" stroke-width="1.5" opacity="0.08"/><path d="M1787.4 89.4 L1858.9 130.7 L1858.9 213.3 L1787.4 254.6 L1715.9 213.3 L1715.9 130.7 Z" fill="none" stroke="#534AB7" stroke-width="1.5" opacity="0.07"/><path d="M1936.4 89.4 L2007.9 130.7 L2007.9 213.3 L1936.4 254.6 L1864.9 213.3 L1864.9 130.7 Z" fill="none" stroke="#534AB7" stroke-width="1.5" opacity="0.05"/><path d="M-74.5 218.4 L-3.0 259.7 L-3.0 342.3 L-74.5 383.6 L-146.0 342.3 L-146.0 259.7 Z" fill="none" stroke="#534AB7" stroke-width="1.5" opacity="0.23"/><path d="M74.5 218.4 L146.0 259.7 L146.0 342.3 L74.5 383.6 L3.0 342.3 L3.0 259.7 Z" fill="none" stroke="#534AB7" stroke-width="1.5" opacity="0.21"/><path d="M223.4 218.4 L294.9 259.7 L294.9 342.3 L223.4 383.6 L151.9 342.3 L151.9 259.7 Z" fill="none" stroke="#534AB7" stroke-width="1.5" opacity="0.20"/><path d="M372.4 218.4 L443.9 259.7 L443.9 342.3 L372.4 383.6 L300.9 342.3 L300.9 259.7 Z" fill="none" stroke="#534AB7" stroke-width="1.5" opacity="0.19"/><path d="M521.3 218.4 L592.8 259.7 L592.8 342.3 L521.3 383.6 L449.8 342.3 L449.8 259.7 Z" fill="none" stroke="#534AB7" stroke-width="1.5" opacity="0.18"/><path d="M670.3 218.4 L741.8 259.7 L741.8 342.3 L670.3 383.6 L598.8 342.3 L598.8 259.7 Z" fill="none" stroke="#534AB7" stroke-width="1.5" opacity="0.16"/><path d="M819.2 218.4 L890.7 259.7 L890.7 342.3 L819.2 383.6 L747.7 342.3 L747.7 259.7 Z" fill="none" stroke="#534AB7" stroke-width="1.5" opacity="0.15"/><path d="M968.2 218.4 L1039.7 259.7 L1039.7 342.3 L968.2 383.6 L896.7 342.3 L896.7 259.7 Z" fill="none" stroke="#534AB7" stroke-width="1.5" opacity="0.14"/><path d="M1117.1 218.4 L1188.6 259.7 L1188.6 342.3 L1117.1 383.6 L1045.6 342.3 L1045.6 259.7 Z" fill="none" stroke="#534AB7" stroke-width="1.5" opacity="0.12"/><path d="M1266.1 218.4 L1337.6 259.7 L1337.6 342.3 L1266.1 383.6 L1194.6 342.3 L1194.6 259.7 Z" fill="none" stroke="#534AB7" stroke-width="1.5" opacity="0.11"/><path d="M1415.0 218.4 L1486.5 259.7 L1486.5 342.3 L1415.0 383.6 L1343.5 342.3 L1343.5 259.7 Z" fill="none" stroke="#534AB7" stroke-width="1.5" opacity="0.10"/><path d="M1564.0 218.4 L1635.5 259.7 L1635.5 342.3 L1564.0 383.6 L1492.5 342.3 L1492.5 259.7 Z" fill="none" stroke="#534AB7" stroke-width="1.5" opacity="0.09"/><path d="M1712.9 218.4 L1784.4 259.7 L1784.4 342.3 L1712.9 383.6 L1641.5 342.3 L1641.5 259.7 Z" fill="none" stroke="#534AB7" stroke-width="1.5" opacity="0.07"/><path d="M1861.9 218.4 L1933.4 259.7 L1933.4 342.3 L1861.9 383.6 L1790.4 342.3 L1790.4 259.7 Z" fill="none" stroke="#534AB7" stroke-width="1.5" opacity="0.06"/><path d="M2010.9 218.4 L2082.3 259.7 L2082.3 342.3 L2010.9 383.6 L1939.4 342.3 L1939.4 259.7 Z" fill="none" stroke="#534AB7" stroke-width="1.5" opacity="0.05"/><path d="M0.0 347.4 L71.5 388.7 L71.5 471.3 L0.0 512.6 L-71.5 471.3 L-71.5 388.7 Z" fill="none" stroke="#534AB7" stroke-width="1.5" opacity="0.22"/><path d="M149.0 347.4 L220.4 388.7 L220.4 471.3 L149.0 512.6 L77.5 471.3 L77.5 388.7 Z" fill="#3C3489" opacity="0.19"/><path d="M297.9 347.4 L369.4 388.7 L369.4 471.3 L297.9 512.6 L226.4 471.3 L226.4 388.7 Z" fill="none" stroke="#534AB7" stroke-width="1.5" opacity="0.19"/><path d="M446.9 347.4 L518.4 388.7 L518.4 471.3 L446.9 512.6 L375.4 471.3 L375.4 388.7 Z" fill="none" stroke="#534AB7" stroke-width="1.5" opacity="0.18"/><path d="M595.8 347.4 L667.3 388.7 L667.3 471.3 L595.8 512.6 L524.3 471.3 L524.3 388.7 Z" fill="none" stroke="#534AB7" stroke-width="1.5" opacity="0.17"/><path d="M744.8 347.4 L816.3 388.7 L816.3 471.3 L744.8 512.6 L673.3 471.3 L673.3 388.7 Z" fill="none" stroke="#534AB7" stroke-width="1.5" opacity="0.16"/><path d="M893.7 347.4 L965.2 388.7 L965.2 471.3 L893.7 512.6 L822.2 471.3 L822.2 388.7 Z" fill="none" stroke="#534AB7" stroke-width="1.5" opacity="0.14"/><path d="M1042.7 347.4 L1114.2 388.7 L1114.2 471.3 L1042.7 512.6 L971.2 471.3 L971.2 388.7 Z" fill="#3C3489" opacity="0.12"/><path d="M1191.6 347.4 L1263.1 388.7 L1263.1 471.3 L1191.6 512.6 L1120.1 471.3 L1120.1 388.7 Z" fill="none" stroke="#534AB7" stroke-width="1.5" opacity="0.12"/><path d="M1340.6 347.4 L1412.1 388.7 L1412.1 471.3 L1340.6 512.6 L1269.1 471.3 L1269.1 388.7 Z" fill="none" stroke="#534AB7" stroke-width="1.5" opacity="0.10"/><path d="M1489.5 347.4 L1561.0 388.7 L1561.0 471.3 L1489.5 512.6 L1418.0 471.3 L1418.0 388.7 Z" fill="none" stroke="#534AB7" stroke-width="1.5" opacity="0.09"/><path d="M1638.5 347.4 L1710.0 388.7 L1710.0 471.3 L1638.5 512.6 L1567.0 471.3 L1567.0 388.7 Z" fill="none" stroke="#534AB7" stroke-width="1.5" opacity="0.08"/><path d="M1787.4 347.4 L1858.9 388.7 L1858.9 471.3 L1787.4 512.6 L1715.9 471.3 L1715.9 388.7 Z" fill="none" stroke="#534AB7" stroke-width="1.5" opacity="0.07"/><path d="M1936.4 347.4 L2007.9 388.7 L2007.9 471.3 L1936.4 512.6 L1864.9 471.3 L1864.9 388.7 Z" fill="none" stroke="#534AB7" stroke-width="1.5" opacity="0.05"/><path d="M-74.5 476.4 L-3.0 517.7 L-3.0 600.3 L-74.5 641.6 L-146.0 600.3 L-146.0 517.7 Z" fill="none" stroke="#534AB7" stroke-width="1.5" opacity="0.23"/><path d="M74.5 476.4 L146.0 517.7 L146.0 600.3 L74.5 641.6 L3.0 600.3 L3.0 517.7 Z" fill="none" stroke="#534AB7" stroke-width="1.5" opacity="0.21"/><path d="M223.4 476.4 L294.9 517.7 L294.9 600.3 L223.4 641.6 L151.9 600.3 L151.9 517.7 Z" fill="none" stroke="#534AB7" stroke-width="1.5" opacity="0.20"/><path d="M372.4 476.4 L443.9 517.7 L443.9 600.3 L372.4 641.6 L300.9 600.3 L300.9 517.7 Z" fill="#3C3489" opacity="0.17"/><path d="M521.3 476.4 L592.8 517.7 L592.8 600.3 L521.3 641.6 L449.8 600.3 L449.8 517.7 Z" fill="none" stroke="#534AB7" stroke-width="1.5" opacity="0.18"/><path d="M670.3 476.4 L741.8 517.7 L741.8 600.3 L670.3 641.6 L598.8 600.3 L598.8 517.7 Z" fill="none" stroke="#534AB7" stroke-width="1.5" opacity="0.16"/><path d="M819.2 476.4 L890.7 517.7 L890.7 600.3 L819.2 641.6 L747.7 600.3 L747.7 517.7 Z" fill="none" stroke="#534AB7" stroke-width="1.5" opacity="0.15"/><path d="M968.2 476.4 L1039.7 517.7 L1039.7 600.3 L968.2 641.6 L896.7 600.3 L896.7 517.7 Z" fill="none" stroke="#534AB7" stroke-width="1.5" opacity="0.14"/><path d="M1117.1 476.4 L1188.6 517.7 L1188.6 600.3 L1117.1 641.6 L1045.6 600.3 L1045.6 517.7 Z" fill="none" stroke="#534AB7" stroke-width="1.5" opacity="0.12"/><path d="M1266.1 476.4 L1337.6 517.7 L1337.6 600.3 L1266.1 641.6 L1194.6 600.3 L1194.6 517.7 Z" fill="none" stroke="#534AB7" stroke-width="1.5" opacity="0.11"/><path d="M1415.0 476.4 L1486.5 517.7 L1486.5 600.3 L1415.0 641.6 L1343.5 600.3 L1343.5 517.7 Z" fill="none" stroke="#534AB7" stroke-width="1.5" opacity="0.10"/><path d="M1564.0 476.4 L1635.5 517.7 L1635.5 600.3 L1564.0 641.6 L1492.5 600.3 L1492.5 517.7 Z" fill="none" stroke="#534AB7" stroke-width="1.5" opacity="0.09"/><path d="M1712.9 476.4 L1784.4 517.7 L1784.4 600.3 L1712.9 641.6 L1641.5 600.3 L1641.5 517.7 Z" fill="none" stroke="#534AB7" stroke-width="1.5" opacity="0.07"/><path d="M1861.9 476.4 L1933.4 517.7 L1933.4 600.3 L1861.9 641.6 L1790.4 600.3 L1790.4 517.7 Z" fill="none" stroke="#534AB7" stroke-width="1.5" opacity="0.06"/><path d="M2010.9 476.4 L2082.3 517.7 L2082.3 600.3 L2010.9 641.6 L1939.4 600.3 L1939.4 517.7 Z" fill="none" stroke="#534AB7" stroke-width="1.5" opacity="0.05"/><path d="M0.0 605.4 L71.5 646.7 L71.5 729.3 L0.0 770.6 L-71.5 729.3 L-71.5 646.7 Z" fill="none" stroke="#534AB7" stroke-width="1.5" opacity="0.22"/><path d="M149.0 605.4 L220.4 646.7 L220.4 729.3 L149.0 770.6 L77.5 729.3 L77.5 646.7 Z" fill="none" stroke="#534AB7" stroke-width="1.5" opacity="0.21"/><path d="M297.9 605.4 L369.4 646.7 L369.4 729.3 L297.9 770.6 L226.4 729.3 L226.4 646.7 Z" fill="none" stroke="#534AB7" stroke-width="1.5" opacity="0.19"/><path d="M446.9 605.4 L518.4 646.7 L518.4 729.3 L446.9 770.6 L375.4 729.3 L375.4 646.7 Z" fill="none" stroke="#534AB7" stroke-width="1.5" opacity="0.18"/><path d="M595.8 605.4 L667.3 646.7 L667.3 729.3 L595.8 770.6 L524.3 729.3 L524.3 646.7 Z" fill="none" stroke="#534AB7" stroke-width="1.5" opacity="0.17"/><path d="M744.8 605.4 L816.3 646.7 L816.3 729.3 L744.8 770.6 L673.3 729.3 L673.3 646.7 Z" fill="none" stroke="#534AB7" stroke-width="1.5" opacity="0.16"/><path d="M893.7 605.4 L965.2 646.7 L965.2 729.3 L893.7 770.6 L822.2 729.3 L822.2 646.7 Z" fill="none" stroke="#534AB7" stroke-width="1.5" opacity="0.14"/><path d="M1042.7 605.4 L1114.2 646.7 L1114.2 729.3 L1042.7 770.6 L971.2 729.3 L971.2 646.7 Z" fill="none" stroke="#534AB7" stroke-width="1.5" opacity="0.13"/><path d="M1191.6 605.4 L1263.1 646.7 L1263.1 729.3 L1191.6 770.6 L1120.1 729.3 L1120.1 646.7 Z" fill="none" stroke="#534AB7" stroke-width="1.5" opacity="0.12"/><path d="M1340.6 605.4 L1412.1 646.7 L1412.1 729.3 L1340.6 770.6 L1269.1 729.3 L1269.1 646.7 Z" fill="none" stroke="#534AB7" stroke-width="1.5" opacity="0.10"/><path d="M1489.5 605.4 L1561.0 646.7 L1561.0 729.3 L1489.5 770.6 L1418.0 729.3 L1418.0 646.7 Z" fill="none" stroke="#534AB7" stroke-width="1.5" opacity="0.09"/><path d="M1638.5 605.4 L1710.0 646.7 L1710.0 729.3 L1638.5 770.6 L1567.0 729.3 L1567.0 646.7 Z" fill="none" stroke="#534AB7" stroke-width="1.5" opacity="0.08"/><path d="M1787.4 605.4 L1858.9 646.7 L1858.9 729.3 L1787.4 770.6 L1715.9 729.3 L1715.9 646.7 Z" fill="none" stroke="#534AB7" stroke-width="1.5" opacity="0.07"/><path d="M1936.4 605.4 L2007.9 646.7 L2007.9 729.3 L1936.4 770.6 L1864.9 729.3 L1864.9 646.7 Z" fill="none" stroke="#534AB7" stroke-width="1.5" opacity="0.05"/></svg>