<svg xmlns="http://www.w3.org/2000/svg" viewBox="0 0 512 512" width="512" height="512"><g transform="translate(0.0 0.0) scale(1.0000)"><g><path d="M256.0 36.0 L446.5 146.0 L446.5 366.0 L256.0 476.0 L65.5 366.0 L65.5 146.0 Z M230 296 a26 26 0 1 0 52 0 a26 26 0 1 0 -52 0 Z M247 339 A9 9 0 0 1 265 339 V459 A9 9 0 0 1 247 459 Z" fill="#F5EFE3" fill-rule="evenodd"/><path d="M446.5 366.0 L256.0 476.0 L65.5 366.0 Z M247 366 H265 V459 A9 9 0 0 1 247 459 Z" fill="#EF9F27" fill-rule="evenodd"/></g></g></svg>